<svg width="20" height="24" viewBox="0 0 20 24" fill="none" xmlns="http://www.w3.org/2000/svg">
<path d="M10.001 0.975098C4.47895 0.975098 0.00195312 5.954 0.00195312 12.0951C0.00195312 17.6445 3.65795 22.2442 8.43895 23.0816V15.3102H5.89895V12.0951H8.43895V9.64509C8.43895 6.85592 9.93195 5.31788 12.215 5.31788C13.309 5.31788 14.455 5.53474 14.455 5.53474V8.26941H13.191C11.951 8.26941 11.563 9.12796 11.563 10.0076V12.0928H14.334L13.891 15.3079H11.563V23.0793C16.344 22.2464 20 17.6456 20 12.0951C20 5.954 15.523 0.975098 10.001 0.975098V0.975098Z" fill="#BDBDBD"/>
</svg>
