<svg width="20" height="24" viewBox="0 0 20 24" fill="none" xmlns="http://www.w3.org/2000/svg">
<path d="M10 23.2151C8.64583 23.2151 7.35026 22.9218 6.11328 22.3354C4.8763 21.7489 3.81185 20.9597 2.91992 19.9678C2.02799 18.9759 1.31836 17.7921 0.791016 16.4164C0.263672 15.0408 0 13.6 0 12.094C0 10.588 0.263672 9.14718 0.791016 7.77153C1.31836 6.39587 2.02799 5.21209 2.91992 4.22017C3.81185 3.22825 4.8763 2.43906 6.11328 1.85259C7.35026 1.26613 8.64583 0.9729 10 0.9729C11.3542 0.9729 12.6497 1.26613 13.8867 1.85259C15.1237 2.43906 16.1882 3.22825 17.0801 4.22017C17.972 5.21209 18.6816 6.39587 19.209 7.77153C19.7363 9.14718 20 10.588 20 12.094C20 13.6 19.7363 15.0408 19.209 16.4164C18.6816 17.7921 17.972 18.9759 17.0801 19.9678C16.1882 20.9597 15.1237 21.7489 13.8867 22.3354C12.6497 22.9218 11.3542 23.2151 10 23.2151ZM15 7.92357C15 7.54708 14.8796 7.22127 14.6387 6.94613C14.3978 6.671 14.1016 6.53344 13.75 6.53344H6.25C5.91146 6.53344 5.61849 6.671 5.37109 6.94613C5.1237 7.22127 5 7.54708 5 7.92357V9.31371H7.22656C7.98177 8.38695 8.90625 7.92357 10 7.92357C11.0938 7.92357 12.0182 8.38695 12.7734 9.31371H15V7.92357ZM7.5 12.094C7.5 12.8614 7.74414 13.5167 8.23242 14.0597C8.7207 14.6027 9.3099 14.8742 10 14.8742C10.6901 14.8742 11.2793 14.6027 11.7676 14.0597C12.2559 13.5167 12.5 12.8614 12.5 12.094C12.5 11.3265 12.2559 10.6713 11.7676 10.1282C11.2793 9.58522 10.6901 9.31371 10 9.31371C9.3099 9.31371 8.7207 9.58522 8.23242 10.1282C7.74414 10.6713 7.5 11.3265 7.5 12.094ZM15 10.7038H13.5156C13.6719 11.1817 13.75 11.6451 13.75 12.094C13.75 13.2524 13.3854 14.2371 12.6562 15.048C11.9271 15.8589 11.0417 16.2644 10 16.2644C8.95833 16.2644 8.07292 15.8589 7.34375 15.048C6.61458 14.2371 6.25 13.2524 6.25 12.094C6.25 11.6451 6.32812 11.1817 6.48438 10.7038H5V16.2644C5 16.6554 5.12044 16.9848 5.36133 17.2527C5.60221 17.5206 5.89844 17.6545 6.25 17.6545H13.75C14.1016 17.6545 14.3978 17.5206 14.6387 17.2527C14.8796 16.9848 15 16.6554 15 16.2644V10.7038Z" fill="#BDBDBD"/>
</svg>
