<svg width="21" height="23" viewBox="0 0 21 23" fill="none" xmlns="http://www.w3.org/2000/svg">
<path d="M12.1831 11.4552L9.82477 10.2315C9.61897 10.1252 9.44992 10.2443 9.44992 10.4977V12.8028C9.44992 13.0562 9.61897 13.1753 9.82477 13.069L12.182 11.8452C12.3889 11.7378 12.3889 11.5627 12.1831 11.4552ZM10.4999 0.440186C4.93282 0.440186 0.419922 5.45902 0.419922 11.6502C0.419922 17.8414 4.93282 22.8603 10.4999 22.8603C16.067 22.8603 20.5799 17.8414 20.5799 11.6502C20.5799 5.45902 16.067 0.440186 10.4999 0.440186ZM10.4999 16.2043C5.34022 16.2043 5.24992 15.687 5.24992 11.6502C5.24992 7.61345 5.34022 7.09615 10.4999 7.09615C15.6596 7.09615 15.7499 7.61345 15.7499 11.6502C15.7499 15.687 15.6596 16.2043 10.4999 16.2043Z" fill="#BDBDBD"/>
</svg>
